<svg width="25" height="25" viewBox="0 0 25 25" fill="none" xmlns="http://www.w3.org/2000/svg">
<path d="M22.917 8.50136L21.7374 15.9719C21.523 17.445 20.3434 18.392 18.8422 18.392H8.54812C7.15413 18.392 5.86736 17.3398 5.6529 15.9719L4.36614 7.23873L4.04444 4.8187C3.93721 4.18738 3.40107 3.76651 2.65045 3.76651H1.89984C1.47091 3.76651 1.04199 3.34563 1.04199 2.92476C1.04199 2.50388 1.47091 2.08301 1.89984 2.08301H2.65045C4.15167 2.08301 5.43844 3.1352 5.54567 4.60826L5.76013 6.29176H20.9869C21.523 6.29176 22.0592 6.5022 22.3808 6.92308C22.8098 7.34396 22.917 7.97527 22.917 8.50136Z" fill="#44BAD3"/>
<path d="M19.0567 22.9169C19.6489 22.9169 20.129 22.4458 20.129 21.8647C20.129 21.2835 19.6489 20.8125 19.0567 20.8125C18.4645 20.8125 17.9844 21.2835 17.9844 21.8647C17.9844 22.4458 18.4645 22.9169 19.0567 22.9169Z" fill="#44BAD3"/>
<path d="M8.33304 22.9169C8.92526 22.9169 9.40535 22.4458 9.40535 21.8647C9.40535 21.2835 8.92526 20.8125 8.33304 20.8125C7.74083 20.8125 7.26074 21.2835 7.26074 21.8647C7.26074 22.4458 7.74083 22.9169 8.33304 22.9169Z" fill="#44BAD3"/>
</svg>
