<svg width="60" height="60" viewBox="0 0 60 60" fill="none" xmlns="http://www.w3.org/2000/svg">
<path d="M55 20.404L52.169 38.3332C51.6545 41.8687 48.8235 44.1415 45.2205 44.1415H20.5147C17.1691 44.1415 14.0809 41.6162 13.5662 38.3332L10.478 17.3737L9.70587 11.5656C9.44852 10.0505 8.16178 9.0404 6.3603 9.0404H4.55883C3.5294 9.0404 2.5 8.0303 2.5 7.0202C2.5 6.0101 3.5294 5 4.55883 5H6.3603C9.96323 5 13.0515 7.52525 13.3088 11.0606L13.8235 15.101H50.3678C51.6545 15.101 52.9412 15.606 53.7132 16.6162C54.7427 17.6263 55 19.1414 55 20.404Z" fill="white"/>
<path d="M45.7356 54.9997C47.1569 54.9997 48.3091 53.8692 48.3091 52.4745C48.3091 51.0797 47.1569 49.9492 45.7356 49.9492C44.3144 49.9492 43.1621 51.0797 43.1621 52.4745C43.1621 53.8692 44.3144 54.9997 45.7356 54.9997Z" fill="white"/>
<path d="M20.0003 54.9997C21.4216 54.9997 22.5738 53.8692 22.5738 52.4745C22.5738 51.0797 21.4216 49.9492 20.0003 49.9492C18.579 49.9492 17.4268 51.0797 17.4268 52.4745C17.4268 53.8692 18.579 54.9997 20.0003 54.9997Z" fill="white"/>
</svg>
